<?xml version="1.0" standalone="no"?>
<!DOCTYPE svg PUBLIC "-//W3C//DTD SVG 20010904//EN"
 "http://www.w3.org/TR/2001/REC-SVG-20010904/DTD/svg10.dtd">
<svg version="1.0" xmlns="http://www.w3.org/2000/svg"
 width="512.000000pt" height="512.000000pt" viewBox="0 0 512.000000 512.000000"
 preserveAspectRatio="xMidYMid meet">

<g transform="translate(0.000000,512.000000) scale(0.100000,-0.100000)"
fill="#000000" stroke="none">
<path d="M2321 5109 c-486 -43 -989 -249 -1376 -564 -114 -92 -294 -274 -384
-387 -229 -287 -417 -675 -495 -1023 -49 -218 -60 -325 -60 -575 0 -250 11
-357 60 -575 79 -355 272 -749 509 -1040 92 -114 274 -294 387 -384 287 -229
675 -417 1023 -495 218 -49 325 -60 575 -60 250 0 357 11 575 60 261 58 603
204 828 353 389 259 688 599 893 1016 165 337 246 658 261 1033 23 598 -168
1183 -545 1672 -84 109 -323 348 -432 432 -528 407 -1164 595 -1819 537z m489
-369 c498 -60 949 -279 1300 -630 351 -351 570 -802 630 -1300 13 -110 13
-392 0 -500 -127 -1020 -910 -1803 -1930 -1930 -108 -13 -390 -13 -500 0 -498
60 -949 279 -1300 630 -351 351 -570 802 -630 1300 -13 109 -13 391 0 500 60
498 279 949 630 1300 346 346 799 568 1285 629 100 12 415 13 515 1z"/>
<path d="M3750 3629 c-19 -11 -419 -404 -887 -872 l-853 -852 -312 312 c-172
171 -327 318 -345 327 -62 31 -144 17 -196 -32 -42 -40 -57 -75 -57 -135 0
-42 6 -63 29 -98 39 -59 757 -772 801 -795 48 -25 129 -23 172 4 18 12 452
441 964 954 760 761 934 940 944 972 26 80 -10 172 -84 217 -43 26 -130 26
-176 -2z"/>
</g>
</svg>
